# xmcd CD database file
#
# Track frame offsets:
#	150
#	17900
#	36800
#	61387
#	83677
#	94642
#	110857
#	130375
#	151885
#	170710
#	185022
#	204265
#
# Disc length: 2949 seconds
#
# Revision: 0
# Processed by: cddbd v1.5.1PL0 Copyright (c) Steve Scherf et al.
# Submitted via: CDex 1.51
#
DISCID=a00b830c
DTITLE=Keb' Mo' - The Door
DYEAR=1900
DGENRE=Blues
TTITLE0=The Door
TTITLE1=Loola Loo
TTITLE2=It Hurts Me Too
TTITLE3=Come On Back
TTITLE4=Stand Up (And Be Strong)
TTITLE5=Anyway
TTITLE6=Don't You Know
TTITLE7=It's All Coming Back
TTITLE8=Gimme What You Got
TTITLE9=Mommy Can I Come Home
TTITLE10=Change
TTITLE11=The Beginning
EXTD=
EXTT0=
EXTT1=
EXTT2=
EXTT3=
EXTT4=
EXTT5=
EXTT6=
EXTT7=
EXTT8=
EXTT9=
EXTT10=
EXTT11=
PLAYORDER=
